<svg width="100" height="100" viewBox="0 0 100 100" fill="none" xmlns="http://www.w3.org/2000/svg">
<rect width="100" height="100" fill="#0E0F11"/>
<path d="M38.518 56.7156L12.2857 41.6492C11.4954 42.6689 9.6216 46.0866 10.0678 51.515C10.5266 57.098 14.3506 61.3808 17.2568 63.4458L43.4127 78.5122C44.254 76.8042 46.2424 73.3116 45.4777 67.7286C44.8612 63.2282 42.5714 59.7748 38.518 56.7156Z" fill="white"/>
<path d="M38.518 56.7156L12.2857 41.6492C11.4954 42.6689 9.6216 46.0866 10.0678 51.515C10.5266 57.098 14.3506 61.3808 17.2568 63.4458L43.4127 78.5122C44.254 76.8042 46.2424 73.3116 45.4777 67.7286C44.8612 63.2282 42.5714 59.7748 38.518 56.7156Z" fill="url(#paint0_linear_901_134)"/>
<path d="M38.518 42.7966L12.2857 57.863C11.4954 56.8433 9.6216 53.4256 10.0678 47.9972C10.5266 42.4142 14.3506 38.1314 17.2568 36.0664L43.4127 21C44.254 22.708 46.2424 26.2006 45.4777 31.7836C44.8612 36.284 42.5714 39.7374 38.518 42.7966Z" fill="white"/>
<path d="M38.518 42.7966L12.2857 57.863C11.4954 56.8433 9.6216 53.4256 10.0678 47.9972C10.5266 42.4142 14.3506 38.1314 17.2568 36.0664L43.4127 21C44.254 22.708 46.2424 26.2006 45.4777 31.7836C44.8612 36.284 42.5714 39.7374 38.518 42.7966Z" fill="url(#paint1_linear_901_134)"/>
<path d="M60.8775 42.7966L87.1099 57.863C87.9001 56.8433 89.7739 53.4256 89.3278 47.9972C88.8689 42.4142 85.0449 38.1314 82.1387 36.0664L55.9828 21C55.1415 22.708 53.1531 26.2006 53.9179 31.7836C54.5343 36.284 56.8241 39.7374 60.8775 42.7966Z" fill="white"/>
<path d="M60.8775 42.7966L87.1099 57.863C87.9001 56.8433 89.7739 53.4256 89.3278 47.9972C88.8689 42.4142 85.0449 38.1314 82.1387 36.0664L55.9828 21C55.1415 22.708 53.1531 26.2006 53.9179 31.7836C54.5343 36.284 56.8241 39.7374 60.8775 42.7966Z" fill="url(#paint2_linear_901_134)"/>
<path d="M60.8775 42.7966L87.1099 57.863C87.9001 56.8433 89.7739 53.4256 89.3278 47.9972C88.8689 42.4142 85.0449 38.1314 82.1387 36.0664L55.9828 21C55.1415 22.708 53.1531 26.2006 53.9179 31.7836C54.5343 36.284 56.8241 39.7374 60.8775 42.7966Z" fill="url(#paint3_linear_901_134)"/>
<path d="M60.7989 56.8831L87.0312 41.8167C87.8215 42.8364 89.6953 46.2541 89.2491 51.6825C88.7903 57.2655 84.9663 61.5483 82.0601 63.6133L55.9042 78.6797C55.0629 76.9717 53.0745 73.4791 53.8392 67.8961C54.4557 63.3957 56.7455 59.9423 60.7989 56.8831Z" fill="url(#paint4_linear_901_134)"/>
<path d="M60.7989 56.8831L87.0312 41.8167C87.8215 42.8364 89.6953 46.2541 89.2491 51.6825C88.7903 57.2655 84.9663 61.5483 82.0601 63.6133L55.9042 78.6797C55.0629 76.9717 53.0745 73.4791 53.8392 67.8961C54.4557 63.3957 56.7455 59.9423 60.7989 56.8831Z" fill="url(#paint5_linear_901_134)"/>
<path d="M60.7989 56.8831L87.0312 41.8167C87.8215 42.8364 89.6953 46.2541 89.2491 51.6825C88.7903 57.2655 84.9663 61.5483 82.0601 63.6133L55.9042 78.6797C55.0629 76.9717 53.0745 73.4791 53.8392 67.8961C54.4557 63.3957 56.7455 59.9423 60.7989 56.8831Z" fill="url(#paint6_linear_901_134)"/>
<path d="M60.7989 56.8831L87.0312 41.8167C87.8215 42.8364 89.6953 46.2541 89.2491 51.6825C88.7903 57.2655 84.9663 61.5483 82.0601 63.6133L55.9042 78.6797C55.0629 76.9717 53.0745 73.4791 53.8392 67.8961C54.4557 63.3957 56.7455 59.9423 60.7989 56.8831Z" fill="url(#paint7_linear_901_134)"/>
<defs>
<linearGradient id="paint0_linear_901_134" x1="46.0895" y1="71.7056" x2="10.3523" y2="48.9922" gradientUnits="userSpaceOnUse">
<stop stop-color="#F6E760"/>
<stop offset="0.817708" stop-color="#9E28FB"/>
</linearGradient>
<linearGradient id="paint1_linear_901_134" x1="46.0895" y1="27.8067" x2="10.3523" y2="50.52" gradientUnits="userSpaceOnUse">
<stop stop-color="#9E28FB"/>
<stop offset="1" stop-color="#F6E760"/>
</linearGradient>
<linearGradient id="paint2_linear_901_134" x1="53.306" y1="27.8067" x2="89.0432" y2="50.52" gradientUnits="userSpaceOnUse">
<stop stop-color="#F6E760"/>
<stop offset="0.864583" stop-color="#4480DA"/>
</linearGradient>
<linearGradient id="paint3_linear_901_134" x1="53.306" y1="27.8067" x2="89.0432" y2="50.52" gradientUnits="userSpaceOnUse">
<stop stop-color="#F6E760"/>
<stop offset="0.817708" stop-color="#9E28FB"/>
</linearGradient>
<linearGradient id="paint4_linear_901_134" x1="53.2274" y1="71.873" x2="88.9646" y2="49.1597" gradientUnits="userSpaceOnUse">
<stop stop-color="#6D28FF"/>
<stop offset="1" stop-color="#F6E760"/>
</linearGradient>
<linearGradient id="paint5_linear_901_134" x1="53.2274" y1="71.873" x2="88.9646" y2="49.1597" gradientUnits="userSpaceOnUse">
<stop stop-color="#2F9AC0"/>
<stop offset="1" stop-color="#F6E760"/>
</linearGradient>
<linearGradient id="paint6_linear_901_134" x1="53.2274" y1="71.873" x2="88.9646" y2="49.1597" gradientUnits="userSpaceOnUse">
<stop stop-color="#4480DA"/>
<stop offset="1" stop-color="#F6E760"/>
</linearGradient>
<linearGradient id="paint7_linear_901_134" x1="53.2274" y1="71.873" x2="88.9646" y2="49.1597" gradientUnits="userSpaceOnUse">
<stop stop-color="#9E28FB"/>
<stop offset="1" stop-color="#F6E760"/>
</linearGradient>
</defs>
</svg>
